<mxfile host="Electron" modified="2024-04-20T21:07:04.315Z" agent="Mozilla/5.0 (Windows NT 10.0; Win64; x64) AppleWebKit/537.36 (KHTML, like Gecko) draw.io/24.2.5 Chrome/120.0.6099.109 Electron/28.1.0 Safari/537.36" etag="CyD41ns-qHBSHLH8RCbz" version="24.2.5" type="device">
  <diagram id="C5RBs43oDa-KdzZeNtuy" name="Page-1">
    <mxGraphModel dx="2227" dy="665" grid="1" gridSize="10" guides="1" tooltips="1" connect="1" arrows="1" fold="1" page="1" pageScale="1" pageWidth="827" pageHeight="1169" math="0" shadow="0">
      <root>
        <mxCell id="WIyWlLk6GJQsqaUBKTNV-0" />
        <mxCell id="WIyWlLk6GJQsqaUBKTNV-1" parent="WIyWlLk6GJQsqaUBKTNV-0" />
        <mxCell id="LOND8mxVzKDbTL9_zkrf-2" value="" style="edgeStyle=orthogonalEdgeStyle;rounded=0;orthogonalLoop=1;jettySize=auto;html=1;" edge="1" parent="WIyWlLk6GJQsqaUBKTNV-1" source="LOND8mxVzKDbTL9_zkrf-0" target="LOND8mxVzKDbTL9_zkrf-1">
          <mxGeometry relative="1" as="geometry" />
        </mxCell>
        <mxCell id="LOND8mxVzKDbTL9_zkrf-0" value="Creo lista di numeri da 0 a 36 e aggiungo in testa 00" style="rounded=1;whiteSpace=wrap;html=1;" vertex="1" parent="WIyWlLk6GJQsqaUBKTNV-1">
          <mxGeometry x="220" y="20" width="120" height="60" as="geometry" />
        </mxCell>
        <mxCell id="LOND8mxVzKDbTL9_zkrf-4" value="" style="edgeStyle=orthogonalEdgeStyle;rounded=0;orthogonalLoop=1;jettySize=auto;html=1;" edge="1" parent="WIyWlLk6GJQsqaUBKTNV-1" source="LOND8mxVzKDbTL9_zkrf-1" target="LOND8mxVzKDbTL9_zkrf-3">
          <mxGeometry relative="1" as="geometry" />
        </mxCell>
        <mxCell id="LOND8mxVzKDbTL9_zkrf-1" value="Creo lista dei numeri rossi" style="whiteSpace=wrap;html=1;rounded=1;" vertex="1" parent="WIyWlLk6GJQsqaUBKTNV-1">
          <mxGeometry x="220" y="110" width="120" height="60" as="geometry" />
        </mxCell>
        <mxCell id="LOND8mxVzKDbTL9_zkrf-6" value="" style="edgeStyle=orthogonalEdgeStyle;rounded=0;orthogonalLoop=1;jettySize=auto;html=1;" edge="1" parent="WIyWlLk6GJQsqaUBKTNV-1" source="LOND8mxVzKDbTL9_zkrf-3" target="LOND8mxVzKDbTL9_zkrf-5">
          <mxGeometry relative="1" as="geometry" />
        </mxCell>
        <mxCell id="LOND8mxVzKDbTL9_zkrf-3" value="Genero numero casuale" style="whiteSpace=wrap;html=1;rounded=1;" vertex="1" parent="WIyWlLk6GJQsqaUBKTNV-1">
          <mxGeometry x="220" y="210" width="120" height="60" as="geometry" />
        </mxCell>
        <mxCell id="LOND8mxVzKDbTL9_zkrf-10" value="" style="edgeStyle=orthogonalEdgeStyle;rounded=0;orthogonalLoop=1;jettySize=auto;html=1;" edge="1" parent="WIyWlLk6GJQsqaUBKTNV-1" source="LOND8mxVzKDbTL9_zkrf-5" target="LOND8mxVzKDbTL9_zkrf-9">
          <mxGeometry relative="1" as="geometry" />
        </mxCell>
        <mxCell id="LOND8mxVzKDbTL9_zkrf-14" value="NO" style="edgeLabel;html=1;align=center;verticalAlign=middle;resizable=0;points=[];" vertex="1" connectable="0" parent="LOND8mxVzKDbTL9_zkrf-10">
          <mxGeometry x="-0.3" y="1" relative="1" as="geometry">
            <mxPoint as="offset" />
          </mxGeometry>
        </mxCell>
        <mxCell id="LOND8mxVzKDbTL9_zkrf-12" value="" style="edgeStyle=orthogonalEdgeStyle;rounded=0;orthogonalLoop=1;jettySize=auto;html=1;" edge="1" parent="WIyWlLk6GJQsqaUBKTNV-1" source="LOND8mxVzKDbTL9_zkrf-5" target="LOND8mxVzKDbTL9_zkrf-11">
          <mxGeometry relative="1" as="geometry" />
        </mxCell>
        <mxCell id="LOND8mxVzKDbTL9_zkrf-13" value="SI" style="edgeLabel;html=1;align=center;verticalAlign=middle;resizable=0;points=[];" vertex="1" connectable="0" parent="LOND8mxVzKDbTL9_zkrf-12">
          <mxGeometry x="-0.7136" y="2" relative="1" as="geometry">
            <mxPoint as="offset" />
          </mxGeometry>
        </mxCell>
        <mxCell id="LOND8mxVzKDbTL9_zkrf-5" value="Numero è&lt;div&gt;0 o 00?&lt;/div&gt;" style="rhombus;whiteSpace=wrap;html=1;rounded=1;" vertex="1" parent="WIyWlLk6GJQsqaUBKTNV-1">
          <mxGeometry x="215" y="310" width="130" height="100" as="geometry" />
        </mxCell>
        <mxCell id="LOND8mxVzKDbTL9_zkrf-29" value="" style="edgeStyle=orthogonalEdgeStyle;rounded=0;orthogonalLoop=1;jettySize=auto;html=1;" edge="1" parent="WIyWlLk6GJQsqaUBKTNV-1" source="LOND8mxVzKDbTL9_zkrf-9" target="LOND8mxVzKDbTL9_zkrf-28">
          <mxGeometry relative="1" as="geometry" />
        </mxCell>
        <mxCell id="LOND8mxVzKDbTL9_zkrf-30" value="SI" style="edgeLabel;html=1;align=center;verticalAlign=middle;resizable=0;points=[];" vertex="1" connectable="0" parent="LOND8mxVzKDbTL9_zkrf-29">
          <mxGeometry x="-0.3474" y="2" relative="1" as="geometry">
            <mxPoint y="1" as="offset" />
          </mxGeometry>
        </mxCell>
        <mxCell id="LOND8mxVzKDbTL9_zkrf-46" value="" style="edgeStyle=orthogonalEdgeStyle;rounded=0;orthogonalLoop=1;jettySize=auto;html=1;" edge="1" parent="WIyWlLk6GJQsqaUBKTNV-1" source="LOND8mxVzKDbTL9_zkrf-9" target="LOND8mxVzKDbTL9_zkrf-45">
          <mxGeometry relative="1" as="geometry" />
        </mxCell>
        <mxCell id="LOND8mxVzKDbTL9_zkrf-61" value="Text" style="edgeLabel;html=1;align=center;verticalAlign=middle;resizable=0;points=[];" vertex="1" connectable="0" parent="LOND8mxVzKDbTL9_zkrf-46">
          <mxGeometry x="0.0213" y="-2" relative="1" as="geometry">
            <mxPoint as="offset" />
          </mxGeometry>
        </mxCell>
        <mxCell id="LOND8mxVzKDbTL9_zkrf-9" value="Numero è&lt;div&gt;in lista rossi?&lt;/div&gt;" style="rhombus;whiteSpace=wrap;html=1;rounded=1;" vertex="1" parent="WIyWlLk6GJQsqaUBKTNV-1">
          <mxGeometry x="215" y="450" width="130" height="100" as="geometry" />
        </mxCell>
        <mxCell id="LOND8mxVzKDbTL9_zkrf-11" value="Stampo a video&lt;div&gt;&#39;Pay 0&#39; o &#39;Pay 00&#39;&lt;/div&gt;" style="whiteSpace=wrap;html=1;rounded=1;" vertex="1" parent="WIyWlLk6GJQsqaUBKTNV-1">
          <mxGeometry x="20" y="640" width="120" height="60" as="geometry" />
        </mxCell>
        <mxCell id="LOND8mxVzKDbTL9_zkrf-20" value="Stampo a video&lt;div&gt;&#39;The spin resluted in [numero]&lt;/div&gt;&lt;div&gt;Pay [numero]&lt;/div&gt;&lt;div&gt;Pay balck&lt;/div&gt;&lt;div&gt;Pay odd&lt;/div&gt;&lt;div&gt;Pay 1 to 18&#39;&lt;/div&gt;" style="whiteSpace=wrap;html=1;rounded=1;" vertex="1" parent="WIyWlLk6GJQsqaUBKTNV-1">
          <mxGeometry x="1290" y="760" width="200" height="100" as="geometry" />
        </mxCell>
        <mxCell id="LOND8mxVzKDbTL9_zkrf-21" value="Stampo a video&lt;div&gt;&#39;The spin resluted in [numero]&lt;/div&gt;&lt;div&gt;Pay [numero]&lt;/div&gt;&lt;div&gt;Pay black&lt;/div&gt;&lt;div&gt;Pay odd&lt;/div&gt;&lt;div&gt;Pay 19 to 36&#39;&lt;/div&gt;" style="whiteSpace=wrap;html=1;rounded=1;" vertex="1" parent="WIyWlLk6GJQsqaUBKTNV-1">
          <mxGeometry x="1500" y="760" width="200" height="100" as="geometry" />
        </mxCell>
        <mxCell id="LOND8mxVzKDbTL9_zkrf-22" value="Stampo a video&lt;div&gt;&#39;The spin resluted in [numero]&lt;/div&gt;&lt;div&gt;Pay [numero]&lt;/div&gt;&lt;div&gt;Pay black&lt;/div&gt;&lt;div&gt;Pay even&lt;/div&gt;&lt;div&gt;Pay 1 to 18&#39;&lt;/div&gt;" style="whiteSpace=wrap;html=1;rounded=1;" vertex="1" parent="WIyWlLk6GJQsqaUBKTNV-1">
          <mxGeometry x="840" y="760" width="200" height="100" as="geometry" />
        </mxCell>
        <mxCell id="LOND8mxVzKDbTL9_zkrf-23" value="Stampo a video&lt;div&gt;&#39;The spin resluted in [numero]&lt;/div&gt;&lt;div&gt;Pay [numero]&lt;/div&gt;&lt;div&gt;Pay black&lt;/div&gt;&lt;div&gt;Pay even&lt;/div&gt;&lt;div&gt;Pay 19 to 36&#39;&lt;/div&gt;" style="whiteSpace=wrap;html=1;rounded=1;" vertex="1" parent="WIyWlLk6GJQsqaUBKTNV-1">
          <mxGeometry x="1070" y="760" width="200" height="100" as="geometry" />
        </mxCell>
        <mxCell id="LOND8mxVzKDbTL9_zkrf-24" value="Stampo a video&lt;div&gt;&#39;The spin resluted in [numero]&lt;/div&gt;&lt;div&gt;Pay [numero]&lt;/div&gt;&lt;div&gt;Pay red&lt;/div&gt;&lt;div&gt;Pay odd&lt;/div&gt;&lt;div&gt;Pay 1 to 18&#39;&lt;/div&gt;" style="whiteSpace=wrap;html=1;rounded=1;" vertex="1" parent="WIyWlLk6GJQsqaUBKTNV-1">
          <mxGeometry x="400" y="910" width="200" height="100" as="geometry" />
        </mxCell>
        <mxCell id="LOND8mxVzKDbTL9_zkrf-25" value="Stampo a video&lt;div&gt;&#39;The spin resluted in [numero]&lt;/div&gt;&lt;div&gt;Pay [numero]&lt;/div&gt;&lt;div&gt;Pay red&lt;/div&gt;&lt;div&gt;Pay odd&lt;/div&gt;&lt;div&gt;Pay 19 to 36&#39;&lt;/div&gt;" style="whiteSpace=wrap;html=1;rounded=1;" vertex="1" parent="WIyWlLk6GJQsqaUBKTNV-1">
          <mxGeometry x="610" y="910" width="200" height="100" as="geometry" />
        </mxCell>
        <mxCell id="LOND8mxVzKDbTL9_zkrf-26" value="Stampo a video&lt;div&gt;&#39;The spin resluted in [numero]&lt;/div&gt;&lt;div&gt;Pay [numero]&lt;/div&gt;&lt;div&gt;Pay red&lt;/div&gt;&lt;div&gt;Pay even&lt;/div&gt;&lt;div&gt;Pay 1 to 18&#39;&lt;/div&gt;" style="whiteSpace=wrap;html=1;rounded=1;" vertex="1" parent="WIyWlLk6GJQsqaUBKTNV-1">
          <mxGeometry x="-60" y="910" width="200" height="100" as="geometry" />
        </mxCell>
        <mxCell id="LOND8mxVzKDbTL9_zkrf-27" value="Stampo a video&lt;div&gt;&#39;The spin resluted in [numero]&lt;/div&gt;&lt;div&gt;Pay [numero]&lt;/div&gt;&lt;div&gt;Pay red&lt;/div&gt;&lt;div&gt;Pay even&lt;/div&gt;&lt;div&gt;Pay 19 to 36&#39;&lt;/div&gt;" style="whiteSpace=wrap;html=1;rounded=1;" vertex="1" parent="WIyWlLk6GJQsqaUBKTNV-1">
          <mxGeometry x="180" y="910" width="200" height="100" as="geometry" />
        </mxCell>
        <mxCell id="LOND8mxVzKDbTL9_zkrf-32" value="" style="edgeStyle=orthogonalEdgeStyle;rounded=0;orthogonalLoop=1;jettySize=auto;html=1;" edge="1" parent="WIyWlLk6GJQsqaUBKTNV-1" source="LOND8mxVzKDbTL9_zkrf-28" target="LOND8mxVzKDbTL9_zkrf-31">
          <mxGeometry relative="1" as="geometry" />
        </mxCell>
        <mxCell id="LOND8mxVzKDbTL9_zkrf-33" value="SI" style="edgeLabel;html=1;align=center;verticalAlign=middle;resizable=0;points=[];" vertex="1" connectable="0" parent="LOND8mxVzKDbTL9_zkrf-32">
          <mxGeometry x="-0.0075" y="4" relative="1" as="geometry">
            <mxPoint as="offset" />
          </mxGeometry>
        </mxCell>
        <mxCell id="LOND8mxVzKDbTL9_zkrf-39" value="" style="edgeStyle=orthogonalEdgeStyle;rounded=0;orthogonalLoop=1;jettySize=auto;html=1;" edge="1" parent="WIyWlLk6GJQsqaUBKTNV-1" source="LOND8mxVzKDbTL9_zkrf-28" target="LOND8mxVzKDbTL9_zkrf-38">
          <mxGeometry relative="1" as="geometry" />
        </mxCell>
        <mxCell id="LOND8mxVzKDbTL9_zkrf-40" value="NO" style="edgeLabel;html=1;align=center;verticalAlign=middle;resizable=0;points=[];" vertex="1" connectable="0" parent="LOND8mxVzKDbTL9_zkrf-39">
          <mxGeometry x="-0.5643" y="-2" relative="1" as="geometry">
            <mxPoint as="offset" />
          </mxGeometry>
        </mxCell>
        <mxCell id="LOND8mxVzKDbTL9_zkrf-28" value="Numero è pari?" style="rhombus;whiteSpace=wrap;html=1;rounded=1;" vertex="1" parent="WIyWlLk6GJQsqaUBKTNV-1">
          <mxGeometry x="215" y="600" width="130" height="100" as="geometry" />
        </mxCell>
        <mxCell id="LOND8mxVzKDbTL9_zkrf-34" style="edgeStyle=orthogonalEdgeStyle;rounded=0;orthogonalLoop=1;jettySize=auto;html=1;" edge="1" parent="WIyWlLk6GJQsqaUBKTNV-1" source="LOND8mxVzKDbTL9_zkrf-31" target="LOND8mxVzKDbTL9_zkrf-26">
          <mxGeometry relative="1" as="geometry" />
        </mxCell>
        <mxCell id="LOND8mxVzKDbTL9_zkrf-35" value="SI" style="edgeLabel;html=1;align=center;verticalAlign=middle;resizable=0;points=[];" vertex="1" connectable="0" parent="LOND8mxVzKDbTL9_zkrf-34">
          <mxGeometry x="-0.4722" y="1" relative="1" as="geometry">
            <mxPoint as="offset" />
          </mxGeometry>
        </mxCell>
        <mxCell id="LOND8mxVzKDbTL9_zkrf-36" style="edgeStyle=orthogonalEdgeStyle;rounded=0;orthogonalLoop=1;jettySize=auto;html=1;exitX=0.5;exitY=1;exitDx=0;exitDy=0;entryX=0.5;entryY=0;entryDx=0;entryDy=0;" edge="1" parent="WIyWlLk6GJQsqaUBKTNV-1" source="LOND8mxVzKDbTL9_zkrf-31" target="LOND8mxVzKDbTL9_zkrf-27">
          <mxGeometry relative="1" as="geometry" />
        </mxCell>
        <mxCell id="LOND8mxVzKDbTL9_zkrf-37" value="NO" style="edgeLabel;html=1;align=center;verticalAlign=middle;resizable=0;points=[];" vertex="1" connectable="0" parent="LOND8mxVzKDbTL9_zkrf-36">
          <mxGeometry x="-0.1754" relative="1" as="geometry">
            <mxPoint y="-1" as="offset" />
          </mxGeometry>
        </mxCell>
        <mxCell id="LOND8mxVzKDbTL9_zkrf-31" value="1&amp;lt;=numero&amp;lt;=18?" style="rhombus;whiteSpace=wrap;html=1;rounded=1;" vertex="1" parent="WIyWlLk6GJQsqaUBKTNV-1">
          <mxGeometry x="215" y="770" width="130" height="80" as="geometry" />
        </mxCell>
        <mxCell id="LOND8mxVzKDbTL9_zkrf-41" style="edgeStyle=orthogonalEdgeStyle;rounded=0;orthogonalLoop=1;jettySize=auto;html=1;exitX=0.5;exitY=1;exitDx=0;exitDy=0;entryX=0.5;entryY=0;entryDx=0;entryDy=0;" edge="1" parent="WIyWlLk6GJQsqaUBKTNV-1" source="LOND8mxVzKDbTL9_zkrf-38" target="LOND8mxVzKDbTL9_zkrf-24">
          <mxGeometry relative="1" as="geometry" />
        </mxCell>
        <mxCell id="LOND8mxVzKDbTL9_zkrf-42" value="SI" style="edgeLabel;html=1;align=center;verticalAlign=middle;resizable=0;points=[];" vertex="1" connectable="0" parent="LOND8mxVzKDbTL9_zkrf-41">
          <mxGeometry x="-0.2842" relative="1" as="geometry">
            <mxPoint as="offset" />
          </mxGeometry>
        </mxCell>
        <mxCell id="LOND8mxVzKDbTL9_zkrf-43" style="edgeStyle=orthogonalEdgeStyle;rounded=0;orthogonalLoop=1;jettySize=auto;html=1;exitX=1;exitY=0.5;exitDx=0;exitDy=0;entryX=0.5;entryY=0;entryDx=0;entryDy=0;" edge="1" parent="WIyWlLk6GJQsqaUBKTNV-1" source="LOND8mxVzKDbTL9_zkrf-38" target="LOND8mxVzKDbTL9_zkrf-25">
          <mxGeometry relative="1" as="geometry" />
        </mxCell>
        <mxCell id="LOND8mxVzKDbTL9_zkrf-44" value="NO" style="edgeLabel;html=1;align=center;verticalAlign=middle;resizable=0;points=[];" vertex="1" connectable="0" parent="LOND8mxVzKDbTL9_zkrf-43">
          <mxGeometry x="-0.3766" y="-1" relative="1" as="geometry">
            <mxPoint as="offset" />
          </mxGeometry>
        </mxCell>
        <mxCell id="LOND8mxVzKDbTL9_zkrf-38" value="1&amp;lt;=numero&amp;lt;=18?" style="rhombus;whiteSpace=wrap;html=1;rounded=1;" vertex="1" parent="WIyWlLk6GJQsqaUBKTNV-1">
          <mxGeometry x="435" y="760" width="130" height="100" as="geometry" />
        </mxCell>
        <mxCell id="LOND8mxVzKDbTL9_zkrf-45" value="Numero è pari?" style="rhombus;whiteSpace=wrap;html=1;rounded=1;" vertex="1" parent="WIyWlLk6GJQsqaUBKTNV-1">
          <mxGeometry x="1105" y="450" width="130" height="100" as="geometry" />
        </mxCell>
        <mxCell id="LOND8mxVzKDbTL9_zkrf-47" value="" style="edgeStyle=orthogonalEdgeStyle;rounded=0;orthogonalLoop=1;jettySize=auto;html=1;" edge="1" parent="WIyWlLk6GJQsqaUBKTNV-1" target="LOND8mxVzKDbTL9_zkrf-55">
          <mxGeometry relative="1" as="geometry">
            <mxPoint x="1170" y="550" as="sourcePoint" />
          </mxGeometry>
        </mxCell>
        <mxCell id="LOND8mxVzKDbTL9_zkrf-48" value="SI" style="edgeLabel;html=1;align=center;verticalAlign=middle;resizable=0;points=[];" vertex="1" connectable="0" parent="LOND8mxVzKDbTL9_zkrf-47">
          <mxGeometry x="-0.0075" y="4" relative="1" as="geometry">
            <mxPoint as="offset" />
          </mxGeometry>
        </mxCell>
        <mxCell id="LOND8mxVzKDbTL9_zkrf-49" value="" style="edgeStyle=orthogonalEdgeStyle;rounded=0;orthogonalLoop=1;jettySize=auto;html=1;" edge="1" parent="WIyWlLk6GJQsqaUBKTNV-1" target="LOND8mxVzKDbTL9_zkrf-60">
          <mxGeometry relative="1" as="geometry">
            <mxPoint x="1235" y="500" as="sourcePoint" />
          </mxGeometry>
        </mxCell>
        <mxCell id="LOND8mxVzKDbTL9_zkrf-50" value="NO" style="edgeLabel;html=1;align=center;verticalAlign=middle;resizable=0;points=[];" vertex="1" connectable="0" parent="LOND8mxVzKDbTL9_zkrf-49">
          <mxGeometry x="-0.5643" y="-2" relative="1" as="geometry">
            <mxPoint as="offset" />
          </mxGeometry>
        </mxCell>
        <mxCell id="LOND8mxVzKDbTL9_zkrf-51" style="edgeStyle=orthogonalEdgeStyle;rounded=0;orthogonalLoop=1;jettySize=auto;html=1;" edge="1" parent="WIyWlLk6GJQsqaUBKTNV-1" source="LOND8mxVzKDbTL9_zkrf-55">
          <mxGeometry relative="1" as="geometry">
            <mxPoint x="930" y="760" as="targetPoint" />
          </mxGeometry>
        </mxCell>
        <mxCell id="LOND8mxVzKDbTL9_zkrf-52" value="SI" style="edgeLabel;html=1;align=center;verticalAlign=middle;resizable=0;points=[];" vertex="1" connectable="0" parent="LOND8mxVzKDbTL9_zkrf-51">
          <mxGeometry x="-0.4722" y="1" relative="1" as="geometry">
            <mxPoint as="offset" />
          </mxGeometry>
        </mxCell>
        <mxCell id="LOND8mxVzKDbTL9_zkrf-53" style="edgeStyle=orthogonalEdgeStyle;rounded=0;orthogonalLoop=1;jettySize=auto;html=1;exitX=0.5;exitY=1;exitDx=0;exitDy=0;entryX=0.5;entryY=0;entryDx=0;entryDy=0;" edge="1" parent="WIyWlLk6GJQsqaUBKTNV-1" source="LOND8mxVzKDbTL9_zkrf-55">
          <mxGeometry relative="1" as="geometry">
            <mxPoint x="1170" y="760" as="targetPoint" />
          </mxGeometry>
        </mxCell>
        <mxCell id="LOND8mxVzKDbTL9_zkrf-54" value="NO" style="edgeLabel;html=1;align=center;verticalAlign=middle;resizable=0;points=[];" vertex="1" connectable="0" parent="LOND8mxVzKDbTL9_zkrf-53">
          <mxGeometry x="-0.1754" relative="1" as="geometry">
            <mxPoint y="-1" as="offset" />
          </mxGeometry>
        </mxCell>
        <mxCell id="LOND8mxVzKDbTL9_zkrf-55" value="1&amp;lt;=numero&amp;lt;=18?" style="rhombus;whiteSpace=wrap;html=1;rounded=1;" vertex="1" parent="WIyWlLk6GJQsqaUBKTNV-1">
          <mxGeometry x="1105" y="620" width="130" height="80" as="geometry" />
        </mxCell>
        <mxCell id="LOND8mxVzKDbTL9_zkrf-56" style="edgeStyle=orthogonalEdgeStyle;rounded=0;orthogonalLoop=1;jettySize=auto;html=1;exitX=0.5;exitY=1;exitDx=0;exitDy=0;entryX=0.5;entryY=0;entryDx=0;entryDy=0;" edge="1" parent="WIyWlLk6GJQsqaUBKTNV-1" source="LOND8mxVzKDbTL9_zkrf-60">
          <mxGeometry relative="1" as="geometry">
            <mxPoint x="1390" y="760" as="targetPoint" />
          </mxGeometry>
        </mxCell>
        <mxCell id="LOND8mxVzKDbTL9_zkrf-57" value="SI" style="edgeLabel;html=1;align=center;verticalAlign=middle;resizable=0;points=[];" vertex="1" connectable="0" parent="LOND8mxVzKDbTL9_zkrf-56">
          <mxGeometry x="-0.2842" relative="1" as="geometry">
            <mxPoint as="offset" />
          </mxGeometry>
        </mxCell>
        <mxCell id="LOND8mxVzKDbTL9_zkrf-58" style="edgeStyle=orthogonalEdgeStyle;rounded=0;orthogonalLoop=1;jettySize=auto;html=1;exitX=1;exitY=0.5;exitDx=0;exitDy=0;entryX=0.5;entryY=0;entryDx=0;entryDy=0;" edge="1" parent="WIyWlLk6GJQsqaUBKTNV-1" source="LOND8mxVzKDbTL9_zkrf-60">
          <mxGeometry relative="1" as="geometry">
            <mxPoint x="1600" y="760" as="targetPoint" />
          </mxGeometry>
        </mxCell>
        <mxCell id="LOND8mxVzKDbTL9_zkrf-59" value="NO" style="edgeLabel;html=1;align=center;verticalAlign=middle;resizable=0;points=[];" vertex="1" connectable="0" parent="LOND8mxVzKDbTL9_zkrf-58">
          <mxGeometry x="-0.3766" y="-1" relative="1" as="geometry">
            <mxPoint as="offset" />
          </mxGeometry>
        </mxCell>
        <mxCell id="LOND8mxVzKDbTL9_zkrf-60" value="1&amp;lt;=numero&amp;lt;=18?" style="rhombus;whiteSpace=wrap;html=1;rounded=1;" vertex="1" parent="WIyWlLk6GJQsqaUBKTNV-1">
          <mxGeometry x="1325" y="610" width="130" height="100" as="geometry" />
        </mxCell>
      </root>
    </mxGraphModel>
  </diagram>
</mxfile>
